<?xml version="1.0" encoding="UTF-8"?>
<svg width="200" height="60" viewBox="0 0 200 60" xmlns="http://www.w3.org/2000/svg">
    <style>
        .logo-text { font-family: Arial, sans-serif; font-weight: bold; }
        .icon { fill: #00E676; }
    </style>
    <g transform="translate(10, 10)">
        <!-- Briefcase icon -->
        <path class="icon" d="M30,10h-6V7c0-1.7-1.3-3-3-3h-8c-1.7,0-3,1.3-3,3v3H4c-2.2,0-4,1.8-4,4v20c0,2.2,1.8,4,4,4h26c2.2,0,4-1.8,4-4V14
            C34,11.8,32.2,10,30,10z M12,7c0-0.6,0.4-1,1-1h8c0.6,0,1,0.4,1,1v3H12V7z"/>
        <!-- Power icon -->
        <path class="icon" d="M19,15v8h-4v-8h4 M21,13h-8v12h8V13L21,13z"/>
        
        <!-- Text "Job On" -->
        <text x="45" y="30" class="logo-text" font-size="24" fill="#fff">Job On</text>
    </g>
</svg> 